<svg width="22" height="22" viewBox="0 0 22 22" fill="none" xmlns="http://www.w3.org/2000/svg">
<path d="M11.0001 12.1134C10.8888 12.1134 10.7775 12.0877 10.6747 12.0278L3.11464 7.65268C2.81497 7.47288 2.70367 7.07904 2.88347 6.77081C3.06327 6.46259 3.45711 6.35985 3.76534 6.53964L11.0001 10.7264L18.192 6.56533C18.5002 6.38553 18.8941 6.49684 19.0739 6.7965C19.2537 7.10472 19.1424 7.49857 18.8427 7.67837L11.334 12.0278C11.2227 12.0791 11.1114 12.1134 11.0001 12.1134Z" fill="#2142FF"/>
<path d="M10.9996 19.8702C10.6485 19.8702 10.3574 19.5791 10.3574 19.228V11.4624C10.3574 11.1114 10.6485 10.8203 10.9996 10.8203C11.3506 10.8203 11.6417 11.1114 11.6417 11.4624V19.228C11.6417 19.5791 11.3506 19.8702 10.9996 19.8702Z" fill="#2142FF"/>
<path d="M10.9999 20.2038C10.2465 20.2038 9.50162 20.0412 8.91085 19.7158L4.33883 17.1729C3.09737 16.488 2.12988 14.8356 2.12988 13.4143V8.57687C2.12988 7.1556 3.09737 5.51173 4.33883 4.81822L8.91085 2.28392C10.0838 1.63322 11.9161 1.63322 13.089 2.28392L17.661 4.82679C18.9025 5.51173 19.87 7.16417 19.87 8.58543V13.4229C19.87 14.8441 18.9025 16.488 17.661 17.1815L13.089 19.7158C12.4983 20.0412 11.7534 20.2038 10.9999 20.2038ZM10.9999 3.08017C10.4605 3.08017 9.92971 3.19148 9.53586 3.40552L4.96385 5.94839C4.14191 6.40216 3.41416 7.63507 3.41416 8.57687V13.4143C3.41416 14.3561 4.14191 15.589 4.96385 16.0513L9.53586 18.5942C10.315 19.0309 11.6849 19.0309 12.464 18.5942L17.036 16.0513C17.858 15.589 18.5857 14.3647 18.5857 13.4143V8.57687C18.5857 7.63507 17.858 6.40216 17.036 5.93982L12.464 3.39696C12.0702 3.19148 11.5393 3.08017 10.9999 3.08017Z" fill="#2142FF"/>
</svg>
