<svg width="20" height="20" viewBox="0 0 20 20" fill="none" xmlns="http://www.w3.org/2000/svg">
<path d="M6.6665 4.79199C6.32484 4.79199 6.0415 4.50866 6.0415 4.16699V1.66699C6.0415 1.32533 6.32484 1.04199 6.6665 1.04199C7.00817 1.04199 7.2915 1.32533 7.2915 1.66699V4.16699C7.2915 4.50866 7.00817 4.79199 6.6665 4.79199Z" fill="#FF2121"/>
<path d="M13.3335 4.79199C12.9918 4.79199 12.7085 4.50866 12.7085 4.16699V1.66699C12.7085 1.32533 12.9918 1.04199 13.3335 1.04199C13.6752 1.04199 13.9585 1.32533 13.9585 1.66699V4.16699C13.9585 4.50866 13.6752 4.79199 13.3335 4.79199Z" fill="#FF2121"/>
<path d="M7.08333 12.0839C6.975 12.0839 6.86667 12.0589 6.76667 12.0173C6.65833 11.9756 6.575 11.9172 6.49167 11.8422C6.34167 11.6839 6.25 11.4756 6.25 11.2506C6.25 11.1423 6.275 11.0339 6.31667 10.9339C6.35833 10.8339 6.41667 10.7423 6.49167 10.6589C6.575 10.5839 6.65833 10.5256 6.76667 10.4839C7.06667 10.3589 7.44167 10.4256 7.675 10.6589C7.825 10.8173 7.91667 11.0339 7.91667 11.2506C7.91667 11.3006 7.90833 11.3589 7.9 11.4173C7.89167 11.4673 7.875 11.5173 7.85 11.5673C7.83333 11.6173 7.80833 11.6672 7.775 11.7172C7.75 11.7589 7.70833 11.8006 7.675 11.8422C7.51667 11.9922 7.3 12.0839 7.08333 12.0839Z" fill="#FF2121"/>
<path d="M9.99984 12.0837C9.8915 12.0837 9.78317 12.0587 9.68317 12.0171C9.57484 11.9754 9.4915 11.917 9.40817 11.842C9.25817 11.6837 9.1665 11.4754 9.1665 11.2504C9.1665 11.142 9.19151 11.0337 9.23317 10.9337C9.27484 10.8337 9.33317 10.7421 9.40817 10.6587C9.4915 10.5837 9.57484 10.5254 9.68317 10.4837C9.98317 10.3504 10.3582 10.4254 10.5915 10.6587C10.7415 10.8171 10.8332 11.0337 10.8332 11.2504C10.8332 11.3004 10.8248 11.3587 10.8165 11.4171C10.8082 11.4671 10.7915 11.5171 10.7665 11.5671C10.7498 11.6171 10.7248 11.667 10.6915 11.717C10.6665 11.7587 10.6248 11.8004 10.5915 11.842C10.4332 11.992 10.2165 12.0837 9.99984 12.0837Z" fill="#FF2121"/>
<path d="M12.9168 12.0837C12.8085 12.0837 12.7002 12.0587 12.6002 12.0171C12.4918 11.9754 12.4085 11.917 12.3252 11.842C12.2918 11.8004 12.2585 11.7587 12.2252 11.717C12.1918 11.667 12.1668 11.6171 12.1502 11.5671C12.1252 11.5171 12.1085 11.4671 12.1002 11.4171C12.0918 11.3587 12.0835 11.3004 12.0835 11.2504C12.0835 11.0337 12.1752 10.8171 12.3252 10.6587C12.4085 10.5837 12.4918 10.5254 12.6002 10.4837C12.9085 10.3504 13.2752 10.4254 13.5085 10.6587C13.6585 10.8171 13.7502 11.0337 13.7502 11.2504C13.7502 11.3004 13.7418 11.3587 13.7335 11.4171C13.7252 11.4671 13.7085 11.5171 13.6835 11.5671C13.6668 11.6171 13.6418 11.667 13.6085 11.717C13.5835 11.7587 13.5418 11.8004 13.5085 11.842C13.3502 11.992 13.1335 12.0837 12.9168 12.0837Z" fill="#FF2121"/>
<path d="M7.08333 15C6.975 15 6.86667 14.975 6.76667 14.9333C6.66667 14.8917 6.575 14.8333 6.49167 14.7583C6.34167 14.6 6.25 14.3833 6.25 14.1667C6.25 14.0583 6.275 13.95 6.31667 13.85C6.35833 13.7417 6.41667 13.65 6.49167 13.575C6.8 13.2667 7.36667 13.2667 7.675 13.575C7.825 13.7333 7.91667 13.95 7.91667 14.1667C7.91667 14.3833 7.825 14.6 7.675 14.7583C7.51667 14.9083 7.3 15 7.08333 15Z" fill="#FF2121"/>
<path d="M9.99984 15C9.78317 15 9.5665 14.9083 9.40817 14.7583C9.25817 14.6 9.1665 14.3833 9.1665 14.1667C9.1665 14.0583 9.19151 13.95 9.23317 13.85C9.27484 13.7417 9.33317 13.65 9.40817 13.575C9.7165 13.2667 10.2832 13.2667 10.5915 13.575C10.6665 13.65 10.7248 13.7417 10.7665 13.85C10.8082 13.95 10.8332 14.0583 10.8332 14.1667C10.8332 14.3833 10.7415 14.6 10.5915 14.7583C10.4332 14.9083 10.2165 15 9.99984 15Z" fill="#FF2121"/>
<path d="M12.9168 14.9994C12.7002 14.9994 12.4835 14.9078 12.3252 14.7578C12.2502 14.6828 12.1918 14.5911 12.1502 14.4828C12.1085 14.3828 12.0835 14.2744 12.0835 14.1661C12.0835 14.0578 12.1085 13.9494 12.1502 13.8494C12.1918 13.7411 12.2502 13.6494 12.3252 13.5744C12.5168 13.3828 12.8085 13.2911 13.0752 13.3494C13.1335 13.3578 13.1835 13.3744 13.2335 13.3994C13.2835 13.4161 13.3335 13.4411 13.3835 13.4745C13.4252 13.4995 13.4668 13.5411 13.5085 13.5744C13.6585 13.7328 13.7502 13.9494 13.7502 14.1661C13.7502 14.3828 13.6585 14.5994 13.5085 14.7578C13.3502 14.9078 13.1335 14.9994 12.9168 14.9994Z" fill="#FF2121"/>
<path d="M17.0832 8.2002H2.9165C2.57484 8.2002 2.2915 7.91686 2.2915 7.5752C2.2915 7.23353 2.57484 6.9502 2.9165 6.9502H17.0832C17.4248 6.9502 17.7082 7.23353 17.7082 7.5752C17.7082 7.91686 17.4248 8.2002 17.0832 8.2002Z" fill="#FF2121"/>
<path d="M13.3333 18.9587H6.66667C3.625 18.9587 1.875 17.2087 1.875 14.167V7.08366C1.875 4.04199 3.625 2.29199 6.66667 2.29199H13.3333C16.375 2.29199 18.125 4.04199 18.125 7.08366V14.167C18.125 17.2087 16.375 18.9587 13.3333 18.9587ZM6.66667 3.54199C4.28333 3.54199 3.125 4.70033 3.125 7.08366V14.167C3.125 16.5503 4.28333 17.7087 6.66667 17.7087H13.3333C15.7167 17.7087 16.875 16.5503 16.875 14.167V7.08366C16.875 4.70033 15.7167 3.54199 13.3333 3.54199H6.66667Z" fill="#FF2121"/>
</svg>
