<svg width="20" height="20" viewBox="0 0 20 20" fill="none" xmlns="http://www.w3.org/2000/svg">
<path d="M14.541 18.9587C13.5993 18.9587 12.6077 18.7337 11.5827 18.3003C10.5827 17.8753 9.57435 17.292 8.59102 16.5837C7.61602 15.867 6.67435 15.067 5.78268 14.192C4.89935 13.3003 4.09935 12.3587 3.39102 11.392C2.67435 10.392 2.09935 9.39199 1.69102 8.42532C1.25768 7.39199 1.04102 6.39199 1.04102 5.45033C1.04102 4.80033 1.15768 4.18366 1.38268 3.60866C1.61602 3.01699 1.99102 2.46699 2.49935 1.99199C3.14102 1.35866 3.87435 1.04199 4.65768 1.04199C4.98268 1.04199 5.31602 1.11699 5.59935 1.25033C5.92435 1.40033 6.19935 1.62533 6.39935 1.92533L8.33268 4.65033C8.50768 4.89199 8.64102 5.12533 8.73268 5.35866C8.84102 5.60866 8.89935 5.85866 8.89935 6.10033C8.89935 6.41699 8.80768 6.72533 8.63268 7.01699C8.50768 7.24199 8.31602 7.48366 8.07435 7.72533L7.50768 8.31699C7.51602 8.34199 7.52435 8.35866 7.53268 8.37533C7.63268 8.55033 7.83268 8.85033 8.21602 9.30033C8.62435 9.76699 9.00768 10.192 9.39102 10.5837C9.88268 11.067 10.291 11.4503 10.6743 11.767C11.1494 12.167 11.4577 12.367 11.641 12.4587L11.6243 12.5003L12.2327 11.9003C12.491 11.642 12.741 11.4503 12.9827 11.3253C13.441 11.042 14.0244 10.992 14.6077 11.2337C14.8244 11.3253 15.0577 11.4503 15.3077 11.6253L18.0744 13.592C18.3827 13.8003 18.6077 14.067 18.741 14.3837C18.866 14.7003 18.9243 14.992 18.9243 15.2837C18.9243 15.6837 18.8327 16.0837 18.6577 16.4587C18.4827 16.8337 18.266 17.1587 17.991 17.4587C17.516 17.9837 16.9993 18.3587 16.3994 18.6003C15.8244 18.8337 15.1994 18.9587 14.541 18.9587ZM4.65768 2.29199C4.19935 2.29199 3.77435 2.49199 3.36602 2.89199C2.98268 3.25033 2.71602 3.64199 2.54935 4.06699C2.37435 4.50033 2.29102 4.95866 2.29102 5.45033C2.29102 6.22533 2.47435 7.06699 2.84102 7.93366C3.21602 8.81699 3.74102 9.73366 4.40768 10.6503C5.07435 11.567 5.83268 12.4587 6.66602 13.3003C7.49935 14.1253 8.39935 14.892 9.32435 15.567C10.2243 16.2253 11.1493 16.7587 12.066 17.142C13.491 17.7503 14.8244 17.892 15.9243 17.4337C16.3493 17.2587 16.7243 16.992 17.066 16.6087C17.2577 16.4003 17.4077 16.1753 17.5327 15.9087C17.6327 15.7003 17.6827 15.4837 17.6827 15.267C17.6827 15.1337 17.6577 15.0003 17.591 14.8503C17.566 14.8003 17.516 14.7087 17.3577 14.6003L14.591 12.6337C14.4243 12.517 14.2743 12.4337 14.1327 12.3753C13.9493 12.3003 13.8743 12.2253 13.591 12.4003C13.4243 12.4837 13.2743 12.6087 13.1077 12.7753L12.4743 13.4003C12.1494 13.717 11.6494 13.792 11.266 13.6503L11.041 13.5503C10.6993 13.367 10.2993 13.0837 9.85768 12.7087C9.45768 12.367 9.02435 11.967 8.49935 11.4503C8.09102 11.0337 7.68268 10.592 7.25768 10.1003C6.86602 9.64199 6.58268 9.25033 6.40768 8.92533L6.30768 8.67533C6.25768 8.48366 6.24102 8.37533 6.24102 8.25866C6.24102 7.95866 6.34935 7.69199 6.55768 7.48366L7.18268 6.83366C7.34935 6.66699 7.47435 6.50866 7.55768 6.36699C7.62435 6.25866 7.64935 6.16699 7.64935 6.08366C7.64935 6.01699 7.62435 5.91699 7.58268 5.81699C7.52435 5.68366 7.43268 5.53366 7.31602 5.37533L5.38268 2.64199C5.29935 2.52533 5.19935 2.44199 5.07435 2.38366C4.94102 2.32533 4.79935 2.29199 4.65768 2.29199ZM11.6243 12.5087L11.491 13.0753L11.716 12.492C11.6743 12.4837 11.641 12.492 11.6243 12.5087Z" fill="#121212"/>
</svg>
