<svg width="21" height="20" viewBox="0 0 21 20" fill="none" xmlns="http://www.w3.org/2000/svg">
<path d="M12.1671 14.0919C12.0087 14.0919 11.8504 14.0335 11.7254 13.9085L8.42539 10.6085C8.18372 10.3669 8.18372 9.96686 8.42539 9.7252C8.66706 9.48353 9.06706 9.48353 9.30872 9.7252L12.6087 13.0252C12.8504 13.2669 12.8504 13.6669 12.6087 13.9085C12.4837 14.0252 12.3254 14.0919 12.1671 14.0919Z" fill="white"/>
<path d="M8.83288 14.1251C8.67454 14.1251 8.51621 14.0667 8.39121 13.9417C8.14954 13.7001 8.14954 13.3001 8.39121 13.0584L11.6912 9.7584C11.9329 9.51673 12.3329 9.51673 12.5745 9.7584C12.8162 10.0001 12.8162 10.4001 12.5745 10.6417L9.27454 13.9417C9.14954 14.0667 8.99121 14.1251 8.83288 14.1251Z" fill="white"/>
<path d="M12.166 5.62533H8.83268C8.03268 5.62533 6.54102 5.62533 6.54102 3.33366C6.54102 1.04199 8.03268 1.04199 8.83268 1.04199H12.166C12.966 1.04199 14.4577 1.04199 14.4577 3.33366C14.4577 4.13366 14.4577 5.62533 12.166 5.62533ZM8.83268 2.29199C8.00768 2.29199 7.79102 2.29199 7.79102 3.33366C7.79102 4.37533 8.00768 4.37533 8.83268 4.37533H12.166C13.2077 4.37533 13.2077 4.15866 13.2077 3.33366C13.2077 2.29199 12.991 2.29199 12.166 2.29199H8.83268Z" fill="white"/>
<path d="M13 18.9587H8C3.31667 18.9587 2.375 16.8087 2.375 13.3337V8.33368C2.375 4.53368 3.75 2.90868 7.13333 2.73368C7.48333 2.71702 7.775 2.97535 7.79167 3.32535C7.80833 3.67535 7.54167 3.95868 7.2 3.97535C4.83333 4.10868 3.625 4.81702 3.625 8.33368V13.3337C3.625 16.417 4.23333 17.7087 8 17.7087H13C16.7667 17.7087 17.375 16.417 17.375 13.3337V8.33368C17.375 4.81702 16.1667 4.10868 13.8 3.97535C13.4583 3.95868 13.1917 3.65868 13.2083 3.31702C13.225 2.97535 13.525 2.70868 13.8667 2.72535C17.25 2.90868 18.625 4.53368 18.625 8.32535V13.3253C18.625 16.8087 17.6833 18.9587 13 18.9587Z" fill="white"/>
</svg>
