<svg width="24" height="25" viewBox="0 0 24 25" fill="none" xmlns="http://www.w3.org/2000/svg">
<path d="M12 15.25C11.59 15.25 11.25 14.91 11.25 14.5V9.5C11.25 9.09 11.59 8.75 12 8.75C12.41 8.75 12.75 9.09 12.75 9.5V14.5C12.75 14.91 12.41 15.25 12 15.25Z" fill="#FF3838"/>
<path d="M12 18.4996C11.94 18.4996 11.87 18.4896 11.8 18.4796C11.74 18.4696 11.68 18.4496 11.62 18.4196C11.56 18.3996 11.5 18.3696 11.44 18.3296C11.39 18.2896 11.34 18.2496 11.29 18.2096C11.11 18.0196 11 17.7596 11 17.4996C11 17.2396 11.11 16.9796 11.29 16.7896C11.34 16.7496 11.39 16.7096 11.44 16.6696C11.5 16.6296 11.56 16.5996 11.62 16.5796C11.68 16.5496 11.74 16.5296 11.8 16.5196C11.93 16.4896 12.07 16.4896 12.19 16.5196C12.26 16.5296 12.32 16.5496 12.38 16.5796C12.44 16.5996 12.5 16.6296 12.56 16.6696C12.61 16.7096 12.66 16.7496 12.71 16.7896C12.89 16.9796 13 17.2396 13 17.4996C13 17.7596 12.89 18.0196 12.71 18.2096C12.66 18.2496 12.61 18.2896 12.56 18.3296C12.5 18.3696 12.44 18.3996 12.38 18.4196C12.32 18.4496 12.26 18.4696 12.19 18.4796C12.13 18.4896 12.06 18.4996 12 18.4996Z" fill="#FF3838"/>
<path d="M18.06 22.6598H5.93998C3.98998 22.6598 2.49998 21.9498 1.73998 20.6698C0.989976 19.3898 1.08998 17.7398 2.03998 16.0298L8.09998 5.12984C9.09998 3.32984 10.48 2.33984 12 2.33984C13.52 2.33984 14.9 3.32984 15.9 5.12984L21.96 16.0398C22.91 17.7498 23.02 19.3898 22.26 20.6798C21.5 21.9498 20.01 22.6598 18.06 22.6598ZM12 3.83984C11.06 3.83984 10.14 4.55984 9.40998 5.85984L3.35998 16.7698C2.67998 17.9898 2.56998 19.1098 3.03998 19.9198C3.50998 20.7298 4.54998 21.1698 5.94998 21.1698H18.07C19.47 21.1698 20.5 20.7298 20.98 19.9198C21.46 19.1098 21.34 17.9998 20.66 16.7698L14.59 5.85984C13.86 4.55984 12.94 3.83984 12 3.83984Z" fill="#FF3838"/>
</svg>
