<svg width="24" height="25" viewBox="0 0 24 25" fill="none" xmlns="http://www.w3.org/2000/svg">
    <path fill-rule="evenodd" clip-rule="evenodd"
        d="M3 1.14917C1.75736 1.14917 0.75 2.15653 0.75 3.39917V7.14917C0.75 8.39181 1.75736 9.39917 3 9.39917H9C10.2426 9.39917 11.25 8.39181 11.25 7.14917V3.39917C11.25 2.15653 10.2426 1.14917 9 1.14917H3ZM2.25 3.39917C2.25 2.98496 2.58579 2.64917 3 2.64917H9C9.41422 2.64917 9.75 2.98496 9.75 3.39917V7.14917C9.75 7.5634 9.41422 7.89917 9 7.89917H3C2.58579 7.89917 2.25 7.5634 2.25 7.14917V3.39917Z"
        fill="#EEEEEE" />
    <path fill-rule="evenodd" clip-rule="evenodd"
        d="M15 23.6492C13.7574 23.6492 12.75 22.6418 12.75 21.3992V17.6492C12.75 16.4065 13.7574 15.3992 15 15.3992H21C22.2426 15.3992 23.25 16.4065 23.25 17.6492V21.3992C23.25 22.6418 22.2426 23.6492 21 23.6492H15ZM14.25 21.3992C14.25 21.8134 14.5858 22.1492 15 22.1492H21C21.4142 22.1492 21.75 21.8134 21.75 21.3992V17.6492C21.75 17.2349 21.4142 16.8992 21 16.8992H15C14.5858 16.8992 14.25 17.2349 14.25 17.6492V21.3992Z"
        fill="#EEEEEE" />
    <path fill-rule="evenodd" clip-rule="evenodd"
        d="M0.75 13.1492C0.75 11.9065 1.75736 10.8992 3 10.8992H9C10.2426 10.8992 11.25 11.9065 11.25 13.1492V21.3992C11.25 22.6418 10.2426 23.6492 9 23.6492H3C1.75736 23.6492 0.75 22.6418 0.75 21.3992V13.1492ZM3 12.3992C2.58579 12.3992 2.25 12.7349 2.25 13.1492V21.3992C2.25 21.8134 2.58579 22.1492 3 22.1492H9C9.41422 22.1492 9.75 21.8134 9.75 21.3992V13.1492C9.75 12.7349 9.41422 12.3992 9 12.3992H3Z"
        fill="#EEEEEE" />
    <path fill-rule="evenodd" clip-rule="evenodd"
        d="M15 13.8992C13.7574 13.8992 12.75 12.8918 12.75 11.6492V3.39917C12.75 2.15653 13.7574 1.14917 15 1.14917H21C22.2426 1.14917 23.25 2.15653 23.25 3.39917V11.6492C23.25 12.8918 22.2426 13.8992 21 13.8992H15ZM14.25 11.6492C14.25 12.0634 14.5858 12.3992 15 12.3992H21C21.4142 12.3992 21.75 12.0634 21.75 11.6492V3.39917C21.75 2.98496 21.4142 2.64917 21 2.64917H15C14.5858 2.64917 14.25 2.98496 14.25 3.39917V11.6492Z"
        fill="#EEEEEE" />
</svg>