<svg width="61" height="60" viewBox="0 0 61 60" fill="none" xmlns="http://www.w3.org/2000/svg">
<path opacity="0.4" d="M39.7992 5H21.1992C20.2492 5 19.4492 5.8 19.4492 6.75C19.4492 7.7 20.2492 8.5 21.1992 8.5H29.3492L32.8492 13.15C33.6242 14.175 33.7242 14.325 35.1742 14.325H44.4742C45.4242 14.325 46.3492 14.45 47.2492 14.7C47.3492 15.15 47.3992 15.6 47.3992 16.075V16.95C47.3992 17.9 48.1992 18.7 49.1492 18.7C50.0992 18.7 50.8992 17.9 50.8992 16.95V16.05C50.8492 9.95 45.8992 5 39.7992 5Z" fill="#B3B3B3"/>
<path d="M50.85 16.35C49.775 15.575 48.55 15 47.225 14.675C46.35 14.425 45.4 14.3 44.45 14.3H35.15C33.7 14.3 33.6 14.15 32.825 13.125L29.325 8.475C27.7 6.325 26.425 5 22.35 5H16.55C10.45 5 5.5 9.95 5.5 16.05V43.95C5.5 50.05 10.45 55 16.55 55H44.45C50.55 55 55.5 50.05 55.5 43.95V25.35C55.5 21.625 53.675 18.35 50.85 16.35ZM36.325 40H24.675C23.7 40 22.925 39.225 22.925 38.25C22.925 37.3 23.7 36.5 24.675 36.5H36.3C37.25 36.5 38.05 37.3 38.05 38.25C38.05 39.225 37.275 40 36.325 40Z" fill="#B3B3B3"/>
</svg>
