<svg width="23" height="18" viewBox="0 0 23 18" fill="none" xmlns="http://www.w3.org/2000/svg">
<path d="M5.47236 17.5696C4.9132 17.5696 4.3907 17.3806 4.01486 17.0296C3.5382 16.5886 3.30903 15.9226 3.39153 15.2026L3.7307 12.2866C3.79486 11.7376 4.13403 11.0086 4.5282 10.6126L12.054 2.79156C13.9332 0.838558 15.8949 0.784558 17.884 2.62956C19.8732 4.47456 19.9282 6.40056 18.049 8.35356L10.5232 16.1746C10.1382 16.5796 9.4232 16.9576 8.86403 17.0476L5.91236 17.5426C5.75653 17.5516 5.61903 17.5696 5.47236 17.5696ZM14.9965 2.62056C14.2907 2.62056 13.6765 3.05256 13.0532 3.70056L5.52736 11.5306C5.34403 11.7196 5.1332 12.1696 5.09653 12.4306L4.75736 15.3466C4.7207 15.6436 4.79403 15.8866 4.95903 16.0396C5.12403 16.1926 5.37153 16.2466 5.67403 16.2016L8.6257 15.7066C8.89153 15.6616 9.33153 15.4276 9.51486 15.2386L17.0407 7.41756C18.1774 6.22956 18.5899 5.13156 16.9307 3.60156C16.1974 2.90856 15.5649 2.62056 14.9965 2.62056Z" fill="#292D32"/>
<path d="M16.2896 9.85438C16.2713 9.85438 16.2438 9.85438 16.2254 9.85438C13.3654 9.57538 11.0646 7.44238 10.6246 4.65238C10.5696 4.28338 10.8263 3.94138 11.2021 3.87838C11.5779 3.82438 11.9263 4.07638 11.9904 4.44538C12.3388 6.62338 14.1354 8.29738 16.3721 8.51338C16.7479 8.54938 17.0229 8.88238 16.9863 9.25138C16.9404 9.59338 16.6379 9.85438 16.2896 9.85438Z" fill="#292D32"/>
</svg>
