<svg width="20" height="20" viewBox="0 0 20 20" fill="none" xmlns="http://www.w3.org/2000/svg">
<path d="M9.99999 12C11.1046 12 12 11.1046 12 10C12 8.89543 11.1046 8 9.99999 8C8.89543 8 8 8.89543 8 10C8 11.1046 8.89543 12 9.99999 12Z" fill="white"/>
<path fill-rule="evenodd" clip-rule="evenodd" d="M0.458008 10C1.73226 5.94291 5.52256 3 10.0002 3C14.4778 3 18.2681 5.94288 19.5424 9.99996C18.2681 14.0571 14.4778 17 10.0002 17C5.52256 17 1.73228 14.0571 0.458008 10ZM14.0002 10C14.0002 12.2091 12.2093 14 10.0002 14C7.79111 14 6.00025 12.2091 6.00025 10C6.00025 7.79086 7.79111 6 10.0002 6C12.2093 6 14.0002 7.79086 14.0002 10Z" fill="white"/>
</svg>
