<svg width="32" height="32" viewBox="0 0 32 32" fill="none" xmlns="http://www.w3.org/2000/svg">
<path fill-rule="evenodd" clip-rule="evenodd" d="M21.0747 9.90179C20.8067 9.89947 20.5503 9.79196 20.3608 9.60242C20.1712 9.41289 20.0637 9.15649 20.0614 8.88845V1.77734H5.83919C5.57229 1.77734 5.30802 1.83006 5.06156 1.93246C4.81509 2.03487 4.59127 2.18494 4.40296 2.37408C4.21465 2.56322 4.06556 2.78768 3.96423 3.0346C3.86291 3.28151 3.81135 3.54601 3.81252 3.8129V28.1862C3.81599 28.4563 3.87364 28.7229 3.98205 28.9702C4.09046 29.2176 4.24742 29.4407 4.44363 29.6262C4.81468 29.9972 5.31463 30.2105 5.83919 30.2218H26.1592C26.6982 30.2174 27.2145 30.0038 27.5992 29.6262C27.9746 29.2444 28.1853 28.7306 28.1859 28.1951V9.90179H21.0747ZM8.88808 7.87512H14.9859V9.91068H8.88808V7.87512ZM23.1103 19.0485H8.88808V17.0129H23.1103V19.0485ZM23.1103 14.9862H8.88808V12.9507H23.1103V14.9862Z" fill="#43D685"/>
<path fill-rule="evenodd" clip-rule="evenodd" d="M26.7593 7.87565H22.1016V3.20898L26.7593 7.87565Z" fill="#43D685"/>
<path d="M18.0391 23.1025H23.1146V25.1381H18.0391V23.1025Z" fill="#43D685"/>
</svg>
