<svg width="20" height="21" viewBox="0 0 20 21" fill="none" xmlns="http://www.w3.org/2000/svg">
<path d="M10.0013 19.862C5.05964 19.862 1.04297 15.8453 1.04297 10.9036C1.04297 5.96198 5.05964 1.94531 10.0013 1.94531C14.943 1.94531 18.9596 5.96198 18.9596 10.9036C18.9596 15.8453 14.943 19.862 10.0013 19.862ZM10.0013 3.19531C5.7513 3.19531 2.29297 6.65365 2.29297 10.9036C2.29297 15.1536 5.7513 18.612 10.0013 18.612C14.2513 18.612 17.7096 15.1536 17.7096 10.9036C17.7096 6.65365 14.2513 3.19531 10.0013 3.19531Z" fill="#121212"/>
<path d="M10 12.362C9.65833 12.362 9.375 12.0786 9.375 11.737V7.57031C9.375 7.22865 9.65833 6.94531 10 6.94531C10.3417 6.94531 10.625 7.22865 10.625 7.57031V11.737C10.625 12.0786 10.3417 12.362 10 12.362Z" fill="#121212"/>
<path d="M10.0013 15.0688C9.89297 15.0688 9.78464 15.0438 9.68464 15.0021C9.58464 14.9604 9.49297 14.9021 9.40964 14.8271C9.33464 14.7437 9.2763 14.6604 9.23464 14.5521C9.19297 14.4521 9.16797 14.3438 9.16797 14.2354C9.16797 14.1271 9.19297 14.0187 9.23464 13.9187C9.2763 13.8187 9.33464 13.7271 9.40964 13.6438C9.49297 13.5688 9.58464 13.5104 9.68464 13.4688C9.88464 13.3854 10.118 13.3854 10.318 13.4688C10.418 13.5104 10.5096 13.5688 10.593 13.6438C10.668 13.7271 10.7263 13.8187 10.768 13.9187C10.8096 14.0187 10.8346 14.1271 10.8346 14.2354C10.8346 14.3438 10.8096 14.4521 10.768 14.5521C10.7263 14.6604 10.668 14.7437 10.593 14.8271C10.5096 14.9021 10.418 14.9604 10.318 15.0021C10.218 15.0438 10.1096 15.0688 10.0013 15.0688Z" fill="#121212"/>
</svg>
