<svg width="21" height="20" viewBox="0 0 21 20" fill="none" xmlns="http://www.w3.org/2000/svg">
<g clip-path="url(#clip0_705_10932)">
<path d="M18.0044 1.62468L9.25437 0.635926C8.99385 0.607678 8.7303 0.634353 8.48073 0.71423C8.23115 0.794107 8.00108 0.925412 7.80538 1.09968C7.75759 1.14717 7.71244 1.19724 7.67013 1.24968H2.79688C2.29977 1.25024 1.82318 1.44796 1.47167 1.79947C1.12016 2.15098 0.922437 2.62757 0.921875 3.12468V16.8747C0.922437 17.3718 1.12016 17.8484 1.47167 18.1999C1.82318 18.5514 2.29977 18.7491 2.79688 18.7497H7.67013C7.71244 18.8021 7.75759 18.8522 7.80538 18.8997C8.14719 19.2053 8.58958 19.3744 9.04813 19.3747C9.11703 19.3745 9.18588 19.3706 9.25437 19.3631L18.0044 18.3743C18.4655 18.3202 18.8904 18.0981 19.198 17.7504C19.5057 17.4027 19.6744 16.9538 19.6719 16.4896V3.5098C19.6745 3.0455 19.5058 2.59653 19.1982 2.24875C18.8905 1.90097 18.4655 1.67879 18.0044 1.62468ZM7.17188 17.4997H2.79688C2.63118 17.4995 2.47232 17.4336 2.35515 17.3164C2.23799 17.1992 2.17207 17.0404 2.17188 16.8747V3.12468C2.17207 2.95898 2.23799 2.80012 2.35515 2.68295C2.47232 2.56579 2.63118 2.49987 2.79688 2.49968H7.17188V17.4997ZM18.4219 16.4896C18.4243 16.6463 18.3688 16.7984 18.2662 16.9169C18.1635 17.0353 18.0208 17.1118 17.8652 17.1317L9.11525 18.1204C9.02932 18.1317 8.94197 18.1237 8.85946 18.0973C8.77695 18.0708 8.70132 18.0263 8.638 17.9672C8.56923 17.9058 8.51438 17.8304 8.4771 17.7461C8.43983 17.6618 8.421 17.5705 8.42188 17.4783V2.52105C8.421 2.42887 8.43983 2.33757 8.4771 2.25326C8.51438 2.16894 8.56923 2.09357 8.638 2.03218C8.74912 1.9309 8.89403 1.87474 9.04438 1.87468C9.06807 1.87463 9.09173 1.87605 9.11525 1.87893L17.8652 2.86768C18.0208 2.88754 18.1635 2.96401 18.2662 3.08247C18.3688 3.20092 18.4243 3.35306 18.4219 3.5098V16.4896Z" fill="#D43131"/>
<path d="M11.5469 7.5C11.3811 7.5 11.2221 7.56585 11.1049 7.68306C10.9877 7.80027 10.9219 7.95924 10.9219 8.125V11.875C10.9219 12.0408 10.9877 12.1997 11.1049 12.3169C11.2221 12.4342 11.3811 12.5 11.5469 12.5C11.7126 12.5 11.8716 12.4342 11.9888 12.3169C12.106 12.1997 12.1719 12.0408 12.1719 11.875V8.125C12.1719 7.95924 12.106 7.80027 11.9888 7.68306C11.8716 7.56585 11.7126 7.5 11.5469 7.5Z" fill="#D43131"/>
</g>
<defs>
<clipPath id="clip0_705_10932">
<rect width="20" height="20" fill="white" transform="translate(0.296875)"/>
</clipPath>
</defs>
</svg>
