<svg width="11" height="3" viewBox="0 0 11 3" fill="none" xmlns="http://www.w3.org/2000/svg">
<path d="M1.06362 3.71937e-07C1.65103 3.4626e-07 2.12723 0.476198 2.12723 1.06362C2.12723 1.65104 1.65103 2.12723 1.06362 2.12723C0.476197 2.12723 2.56769e-08 1.65104 0 1.06362C-2.56769e-08 0.476198 0.476197 3.97614e-07 1.06362 3.71937e-07Z" fill="#121212"/>
<path d="M5.31808 1.85968e-07C5.9055 1.60291e-07 6.3817 0.476197 6.3817 1.06362C6.3817 1.65104 5.9055 2.12723 5.31808 2.12723C4.73066 2.12723 4.25446 1.65104 4.25446 1.06362C4.25446 0.476197 4.73066 2.11645e-07 5.31808 1.85968e-07Z" fill="#121212"/>
<path d="M10.6362 1.06362C10.6362 0.476197 10.16 -2.56769e-08 9.57254 0C8.98512 2.56769e-08 8.50893 0.476197 8.50893 1.06362C8.50893 1.65104 8.98512 2.12723 9.57254 2.12723C10.16 2.12723 10.6362 1.65104 10.6362 1.06362Z" fill="#121212"/>
</svg>
