<svg width="22" height="20" viewBox="0 0 22 20" fill="none" xmlns="http://www.w3.org/2000/svg">
<path d="M20.7101 7.03578H20.6508V2.61924C20.6503 2.17079 20.4719 1.74084 20.1548 1.42373C19.8377 1.10662 19.4078 0.928246 18.9593 0.927734H1.69142C1.24297 0.928246 0.813036 1.10663 0.495941 1.42374C0.178846 1.74085 0.000489022 2.17079 0 2.61924L0 17.3812C0.000500394 17.8296 0.178863 18.2596 0.495956 18.5767C0.81305 18.8938 1.24298 19.0721 1.69142 19.0727H18.9593C19.4077 19.0722 19.8377 18.8938 20.1548 18.5767C20.4719 18.2596 20.6503 17.8297 20.6508 17.3812V12.9646H20.7102C21.0521 12.9642 21.38 12.8282 21.6218 12.5864C21.8636 12.3446 21.9996 12.0167 22 11.6748V8.32562C21.9996 7.98365 21.8636 7.6558 21.6218 7.41399C21.3799 7.17219 21.0521 7.03617 20.7101 7.03578ZM20.625 11.5896H15.5418C15.1203 11.5896 14.716 11.4222 14.4179 11.1241C14.1198 10.826 13.9524 10.4217 13.9524 10.0002C13.9524 9.57866 14.1198 9.17439 14.4179 8.87631C14.716 8.57824 15.1203 8.41078 15.5418 8.41078H20.625V11.5896ZM1.69142 2.30273H18.9593C19.0432 2.30284 19.1236 2.33622 19.183 2.39555C19.2423 2.45489 19.2756 2.53533 19.2757 2.61924V3.84321H1.375V2.61924C1.37508 2.53534 1.40844 2.45489 1.46776 2.39556C1.52708 2.33622 1.60752 2.30284 1.69142 2.30273ZM18.9593 17.6977H1.69142C1.60753 17.6976 1.5271 17.6642 1.46778 17.6049C1.40846 17.5455 1.37509 17.4651 1.375 17.3812V16.1572H19.2758V17.3812C19.2757 17.4651 19.2423 17.5456 19.183 17.6049C19.1236 17.6642 19.0432 17.6976 18.9593 17.6977ZM19.2758 14.7822H1.375V5.21821H19.2758V7.03578H15.5418C14.7556 7.03578 14.0016 7.34811 13.4456 7.90404C12.8897 8.45998 12.5774 9.21399 12.5774 10.0002C12.5774 10.7864 12.8897 11.5404 13.4456 12.0964C14.0016 12.6523 14.7556 12.9646 15.5418 12.9646H19.2758V14.7822ZM15.6246 9.3127C15.7605 9.3127 15.8935 9.35302 16.0065 9.42856C16.1196 9.50411 16.2077 9.61148 16.2597 9.7371C16.3118 9.86273 16.3254 10.001 16.2988 10.1343C16.2723 10.2677 16.2068 10.3902 16.1107 10.4863C16.0145 10.5825 15.892 10.648 15.7587 10.6745C15.6253 10.701 15.4871 10.6874 15.3615 10.6354C15.2358 10.5833 15.1285 10.4952 15.0529 10.3822C14.9774 10.2691 14.9371 10.1362 14.9371 10.0002C14.9371 9.9099 14.9548 9.82048 14.9894 9.73705C15.024 9.65363 15.0746 9.57783 15.1385 9.51399C15.2024 9.45014 15.2782 9.39951 15.3616 9.36497C15.445 9.33043 15.5345 9.31267 15.6248 9.3127H15.6246Z" fill="white"/>
</svg>
