<svg width="32" height="32" viewBox="0 0 32 32" fill="none" xmlns="http://www.w3.org/2000/svg">
<path d="M21.1348 0H4.55084C4.08913 0 3.71484 0.374286 3.71484 1.10057V31.4286C3.71484 31.6257 4.08913 32 4.55084 32H27.4503C27.912 32 28.2863 31.6257 28.2863 31.4286V7.416C28.2863 7.01829 28.2331 6.89029 28.1394 6.796L21.4903 0.146857C21.396 0.0531429 21.268 0 21.1348 0Z" fill="#E9E9E0"/>
<path d="M21.4297 0.0859375V6.85679H28.2005L21.4297 0.0859375Z" fill="#D9D7CA"/>
<path d="M11.1507 19.0441C10.9519 19.0441 10.761 18.9795 10.5981 18.8578C10.0033 18.4115 9.92328 17.9149 9.96099 17.5766C10.065 16.6464 11.2153 15.6726 13.381 14.6806C14.2404 12.7972 15.0581 10.4766 15.5456 8.53779C14.9753 7.29665 14.421 5.68636 14.825 4.74179C14.9667 4.41093 15.1433 4.15722 15.473 4.0475C15.6033 4.00408 15.9324 3.94922 16.0536 3.94922C16.3416 3.94922 16.5947 4.32008 16.7741 4.54865C16.9427 4.7635 17.325 5.21893 16.561 8.4355C17.3313 10.0264 18.4227 11.6469 19.4684 12.7566C20.2176 12.6212 20.8621 12.5521 21.3873 12.5521C22.2821 12.5521 22.8244 12.7606 23.0456 13.1904C23.2284 13.5458 23.1536 13.9612 22.8227 14.4246C22.5044 14.8698 22.0656 15.1052 21.5541 15.1052C20.8593 15.1052 20.0501 14.6664 19.1479 13.7995C17.5267 14.1384 15.6336 14.7429 14.1033 15.4121C13.6256 16.4258 13.1679 17.2424 12.7416 17.8412C12.1559 18.6612 11.6507 19.0441 11.1507 19.0441ZM12.6719 16.1149C11.4507 16.8012 10.953 17.3652 10.917 17.6829C10.9113 17.7355 10.8959 17.8738 11.1633 18.0784C11.2484 18.0515 11.7456 17.8246 12.6719 16.1149ZM20.4644 13.5766C20.9301 13.9349 21.0439 14.1161 21.3484 14.1161C21.4821 14.1161 21.8633 14.1104 22.0399 13.8641C22.125 13.7446 22.1581 13.6681 22.1713 13.6269C22.101 13.5898 22.0079 13.5144 21.4999 13.5144C21.2113 13.5149 20.8484 13.5275 20.4644 13.5766ZM16.1959 9.8155C15.7873 11.2292 15.2479 12.7555 14.6679 14.1378C15.8621 13.6744 17.1604 13.2698 18.3799 12.9835C17.6084 12.0875 16.8376 10.9686 16.1959 9.8155ZM15.849 4.98008C15.793 4.99893 15.089 5.98408 15.9039 6.81779C16.4461 5.60922 15.8736 4.97208 15.849 4.98008Z" fill="#CC4B4C"/>
<path d="M27.4503 31.9994H4.55084C4.08913 31.9994 3.71484 31.6252 3.71484 31.1634V22.2852H28.2863V31.1634C28.2863 31.6252 27.912 31.9994 27.4503 31.9994Z" fill="#CC4B4C"/>
<path d="M9.93381 30.2851H8.99609V24.5273H10.6521C10.8967 24.5273 11.139 24.5662 11.3784 24.6445C11.6178 24.7228 11.8327 24.8399 12.023 24.9959C12.2132 25.1519 12.367 25.3411 12.4841 25.5622C12.6012 25.7833 12.6601 26.0319 12.6601 26.3085C12.6601 26.6005 12.6104 26.8645 12.5115 27.1016C12.4127 27.3388 12.2744 27.5382 12.0972 27.6993C11.9201 27.8605 11.7064 27.9856 11.4567 28.0742C11.207 28.1628 10.9304 28.2068 10.6287 28.2068H9.93324L9.93381 30.2851ZM9.93381 25.2382V27.5193H10.7932C10.9075 27.5193 11.0207 27.4999 11.1332 27.4605C11.2452 27.4216 11.3481 27.3576 11.4418 27.2691C11.5355 27.1805 11.611 27.0571 11.6681 26.8982C11.7252 26.7393 11.7538 26.5428 11.7538 26.3085C11.7538 26.2148 11.7407 26.1062 11.715 25.9845C11.6887 25.8622 11.6355 25.7451 11.555 25.6331C11.4738 25.5211 11.3607 25.4273 11.215 25.3519C11.0692 25.2765 10.8761 25.2388 10.6367 25.2388L9.93381 25.2382Z" fill="white"/>
<path d="M18.4103 27.2462C18.4103 27.7199 18.3594 28.1251 18.2577 28.4611C18.156 28.7971 18.0274 29.0782 17.8709 29.3051C17.7143 29.5319 17.5389 29.7102 17.3434 29.8405C17.148 29.9708 16.9594 30.0679 16.7771 30.1336C16.5949 30.1988 16.428 30.2405 16.2771 30.2588C16.1263 30.2759 16.0143 30.2851 15.9411 30.2851H13.7617V24.5273H15.496C15.9806 24.5273 16.4063 24.6045 16.7731 24.7576C17.14 24.9108 17.4451 25.1159 17.6874 25.3708C17.9297 25.6256 18.1103 25.9165 18.2303 26.2416C18.3503 26.5673 18.4103 26.9022 18.4103 27.2462ZM15.6291 29.5976C16.2646 29.5976 16.7229 29.3948 17.004 28.9885C17.2851 28.5822 17.4257 27.9936 17.4257 27.2228C17.4257 26.9833 17.3971 26.7462 17.34 26.5119C17.2823 26.2776 17.172 26.0656 17.008 25.8753C16.844 25.6851 16.6211 25.5313 16.34 25.4142C16.0589 25.2971 15.6943 25.2382 15.2463 25.2382H14.6994V29.5976H15.6291Z" fill="white"/>
<path d="M20.7227 25.2382V27.0508H23.129V27.6913H20.7227V30.2851H19.7695V24.5273H23.3707V25.2382H20.7227Z" fill="white"/>
</svg>
