<svg width="20" height="20" viewBox="0 0 20 20" fill="none" xmlns="http://www.w3.org/2000/svg">
<path d="M14.9999 6.59148C14.9749 6.59148 14.9583 6.59148 14.9333 6.59148H14.8916C13.3166 6.54148 12.1416 5.32481 12.1416 3.82481C12.1416 2.29147 13.3916 1.0498 14.9166 1.0498C16.4416 1.0498 17.6916 2.29981 17.6916 3.82481C17.6833 5.33314 16.5083 6.54981 15.0083 6.59981C15.0083 6.59147 15.0083 6.59148 14.9999 6.59148ZM14.9166 2.29148C14.0749 2.29148 13.3916 2.97481 13.3916 3.81648C13.3916 4.64148 14.0333 5.30815 14.8583 5.34148C14.8666 5.33315 14.9333 5.33315 15.0083 5.34148C15.8166 5.29981 16.4416 4.63314 16.4499 3.81648C16.4499 2.97481 15.7666 2.29148 14.9166 2.29148Z" fill="#388500"/>
<path d="M15.0083 12.7329C14.6833 12.7329 14.3583 12.7079 14.0333 12.6495C13.6916 12.5912 13.4666 12.2662 13.5249 11.9246C13.5833 11.5829 13.9083 11.3579 14.2499 11.4162C15.2749 11.5912 16.3583 11.3996 17.0833 10.9162C17.4749 10.6579 17.6833 10.3329 17.6833 10.0079C17.6833 9.68288 17.4666 9.36622 17.0833 9.10788C16.3583 8.62455 15.2583 8.43289 14.2249 8.61622C13.8833 8.68289 13.5583 8.44955 13.4999 8.10789C13.4416 7.76622 13.6666 7.44122 14.0083 7.38289C15.3666 7.14122 16.7749 7.39955 17.7749 8.06622C18.5083 8.55788 18.9333 9.25788 18.9333 10.0079C18.9333 10.7496 18.5166 11.4579 17.7749 11.9579C17.0166 12.4579 16.0333 12.7329 15.0083 12.7329Z" fill="#388500"/>
<path d="M4.9749 6.592C4.96657 6.592 4.95824 6.592 4.95824 6.592C3.45824 6.542 2.28324 5.32532 2.2749 3.82532C2.2749 2.29199 3.5249 1.04199 5.0499 1.04199C6.5749 1.04199 7.8249 2.29199 7.8249 3.81699C7.8249 5.32533 6.6499 6.542 5.1499 6.592L4.9749 5.967L5.03324 6.592C5.01657 6.592 4.99157 6.592 4.9749 6.592ZM5.05824 5.342C5.10824 5.342 5.1499 5.34199 5.1999 5.35032C5.94157 5.31699 6.59157 4.65032 6.59157 3.82532C6.59157 2.98366 5.90824 2.30032 5.06657 2.30032C4.2249 2.30032 3.54157 2.98366 3.54157 3.82532C3.54157 4.64199 4.1749 5.30032 4.98324 5.35032C4.99157 5.34199 5.0249 5.342 5.05824 5.342Z" fill="#388500"/>
<path d="M4.9665 12.7329C3.9415 12.7329 2.95817 12.4579 2.19984 11.9579C1.4665 11.4662 1.0415 10.7579 1.0415 10.0079C1.0415 9.26622 1.4665 8.55788 2.19984 8.06622C3.19984 7.39955 4.60817 7.14122 5.9665 7.38289C6.30817 7.44122 6.53317 7.76622 6.47484 8.10789C6.4165 8.44955 6.09151 8.68289 5.74984 8.61622C4.71651 8.43289 3.62484 8.62455 2.89151 9.10788C2.49984 9.36622 2.2915 9.68288 2.2915 10.0079C2.2915 10.3329 2.50817 10.6579 2.89151 10.9162C3.61651 11.3996 4.69984 11.5912 5.72484 11.4162C6.0665 11.3579 6.39151 11.5912 6.44984 11.9246C6.50817 12.2662 6.28317 12.5912 5.9415 12.6495C5.61651 12.7079 5.2915 12.7329 4.9665 12.7329Z" fill="#388500"/>
<path d="M9.99994 12.8171C9.97494 12.8171 9.95827 12.8171 9.93327 12.8171H9.8916C8.3166 12.7671 7.1416 11.5504 7.1416 10.0504C7.1416 8.51706 8.3916 7.27539 9.9166 7.27539C11.4416 7.27539 12.6916 8.52539 12.6916 10.0504C12.6833 11.5587 11.5083 12.7754 10.0083 12.8254C10.0083 12.8171 10.0083 12.8171 9.99994 12.8171ZM9.9166 8.51706C9.07494 8.51706 8.3916 9.2004 8.3916 10.0421C8.3916 10.8671 9.03327 11.5337 9.85827 11.5671C9.8666 11.5587 9.93327 11.5587 10.0083 11.5671C10.8166 11.5254 11.4416 10.8587 11.4499 10.0421C11.4499 9.20873 10.7666 8.51706 9.9166 8.51706Z" fill="#388500"/>
<path d="M9.99974 18.9666C8.99974 18.9666 7.99974 18.7083 7.22474 18.1833C6.49141 17.6916 6.06641 16.9916 6.06641 16.2416C6.06641 15.4999 6.48307 14.7833 7.22474 14.2916C8.78307 13.2583 11.2247 13.2583 12.7747 14.2916C13.5081 14.7833 13.9331 15.4833 13.9331 16.2333C13.9331 16.9749 13.5164 17.6916 12.7747 18.1833C11.9997 18.6999 10.9997 18.9666 9.99974 18.9666ZM7.91641 15.3416C7.52474 15.5999 7.31641 15.9249 7.31641 16.2499C7.31641 16.5749 7.53307 16.8916 7.91641 17.1499C9.04141 17.9083 10.9497 17.9083 12.0747 17.1499C12.4664 16.8916 12.6747 16.5666 12.6747 16.2416C12.6747 15.9166 12.4581 15.5999 12.0747 15.3416C10.9581 14.5833 9.04974 14.5916 7.91641 15.3416Z" fill="#388500"/>
</svg>
