<svg width="18" height="23" viewBox="0 0 18 23" fill="none" xmlns="http://www.w3.org/2000/svg">
    <path fill-rule="evenodd" clip-rule="evenodd"
        d="M3 1.64917C2.17159 1.64917 1.5 2.32074 1.5 3.14917V19.6492C1.5 20.4776 2.17159 21.1492 3 21.1492H15C15.8284 21.1492 16.5 20.4776 16.5 19.6492V6.52417H14.25C13.0074 6.52417 12 5.51681 12 4.27417V1.64917H3ZM13.5 2.81741L15.537 5.02417H14.25C13.8358 5.02417 13.5 4.6884 13.5 4.27417V2.81741ZM0 3.14917C0 1.49231 1.34314 0.14917 3 0.14917H12.75C12.9593 0.14917 13.1591 0.23665 13.3011 0.39046L17.8011 5.26544C17.929 5.40401 18 5.58562 18 5.77417V19.6492C18 21.306 16.6569 22.6492 15 22.6492H3C1.34314 22.6492 0 21.306 0 19.6492V3.14917ZM3.75 9.14917C3.75 8.73495 4.08577 8.39917 4.5 8.39917H6.75C7.16423 8.39917 7.5 8.73495 7.5 9.14917C7.5 9.56339 7.16423 9.89917 6.75 9.89917H4.5C4.08577 9.89917 3.75 9.56339 3.75 9.14917ZM3.75 12.1492C3.75 11.7349 4.08577 11.3992 4.5 11.3992H13.875C14.2892 11.3992 14.625 11.7349 14.625 12.1492C14.625 12.5634 14.2892 12.8992 13.875 12.8992H4.5C4.08577 12.8992 3.75 12.5634 3.75 12.1492ZM3.375 15.1492C3.375 14.7349 3.71077 14.3992 4.125 14.3992H13.875C14.2892 14.3992 14.625 14.7349 14.625 15.1492C14.625 15.5634 14.2892 15.8992 13.875 15.8992H4.125C3.71077 15.8992 3.375 15.5634 3.375 15.1492ZM3.375 18.1492C3.375 17.7349 3.71077 17.3992 4.125 17.3992H13.875C14.2892 17.3992 14.625 17.7349 14.625 18.1492C14.625 18.5634 14.2892 18.8992 13.875 18.8992H4.125C3.71077 18.8992 3.375 18.5634 3.375 18.1492Z"
        fill="#EEEEEE" />
</svg>
    