<svg width="24" height="23" viewBox="0 0 24 23" fill="none" xmlns="http://www.w3.org/2000/svg">
    <path fill-rule="evenodd" clip-rule="evenodd"
        d="M17.25 11.3992C17.25 8.49967 14.8995 6.14917 12 6.14917C9.1005 6.14917 6.75 8.49967 6.75 11.3992C6.75 14.2987 9.1005 16.6492 12 16.6492C14.8995 16.6492 17.25 14.2987 17.25 11.3992ZM12 7.64917C14.0711 7.64917 15.75 9.32812 15.75 11.3992C15.75 13.4703 14.0711 15.1492 12 15.1492C9.92895 15.1492 8.25 13.4703 8.25 11.3992C8.25 9.32812 9.92895 7.64917 12 7.64917Z"
        fill="#EEEEEE" />
    <path fill-rule="evenodd" clip-rule="evenodd"
        d="M10.5 0.14917C10.1631 0.14917 9.86753 0.373821 9.77738 0.698436L9.17966 2.85014C8.75475 2.99025 8.34386 3.16113 7.9497 3.36007L6.0051 2.26096C5.71181 2.09518 5.34398 2.14532 5.10574 2.38355L2.98442 4.50487C2.74619 4.74311 2.69605 5.11095 2.86182 5.40423L3.96094 7.34879C3.76196 7.74299 3.59109 8.15388 3.45097 8.57883L1.29927 9.17655C0.974651 9.2667 0.75 9.56227 0.75 9.89917V12.8992C0.75 13.2361 0.974651 13.5316 1.29927 13.6218L3.45097 14.2195C3.59108 14.6444 3.76196 15.0553 3.9609 15.4495L2.86179 17.3941C2.69601 17.6874 2.74615 18.0552 2.98438 18.2934L5.1057 20.4148C5.34394 20.653 5.71178 20.7031 6.00506 20.5374L7.94963 19.4382C8.34382 19.6372 8.75471 19.8081 9.17966 19.9482L9.77738 22.0999C9.86753 22.4245 10.1631 22.6492 10.5 22.6492H13.5C13.8369 22.6492 14.1325 22.4245 14.2226 22.0999L14.8203 19.9482C15.2453 19.8081 15.6562 19.6372 16.0503 19.4382L17.995 20.5374C18.2883 20.7031 18.6561 20.653 18.8943 20.4148L21.0157 18.2935C21.2539 18.0552 21.304 17.6874 21.1383 17.3941L20.0391 15.4495C20.2381 15.0553 20.4089 14.6444 20.549 14.2195L22.7007 13.6218C23.0253 13.5316 23.25 13.2361 23.25 12.8992V9.89917C23.25 9.56227 23.0253 9.2667 22.7007 9.17655L20.549 8.57883C20.4089 8.15388 20.238 7.743 20.0391 7.34883L21.1382 5.40419C21.304 5.11091 21.2538 4.74307 21.0156 4.50483L18.8943 2.38351C18.6561 2.14528 18.2882 2.09514 17.9949 2.26091L16.0503 3.36007C15.6561 3.16109 15.2453 2.99025 14.8203 2.85014L14.2226 0.698436C14.1325 0.373821 13.8369 0.14917 13.5 0.14917H10.5ZM10.5146 3.64871L11.0701 1.64917H12.9299L13.4854 3.64871C13.5558 3.90232 13.7541 4.10043 14.0077 4.17071C14.6014 4.33522 15.1657 4.57102 15.6907 4.86843C15.9198 4.99822 16.2002 4.99837 16.4294 4.86881L18.2367 3.84727L19.5519 5.1624L18.5303 6.96971C18.4008 7.19895 18.4009 7.4793 18.5307 7.70842C18.8281 8.2335 19.0639 8.79772 19.2284 9.39146C19.2987 9.64511 19.4969 9.84337 19.7505 9.91379L21.75 10.4692V12.3291L19.7505 12.8845C19.4969 12.955 19.2987 13.1532 19.2284 13.4069C19.0639 14.0006 18.8281 14.5648 18.5307 15.0899C18.4009 15.319 18.4008 15.5994 18.5304 15.8286L19.5519 17.6359L18.2368 18.951L16.4295 17.9295C16.2002 17.7999 15.9199 17.8001 15.6908 17.9299C15.1657 18.2273 14.6014 18.4631 14.0077 18.6276C13.7541 18.6979 13.5558 18.896 13.4854 19.1496L12.9299 21.1492H11.0701L10.5146 19.1496C10.4442 18.896 10.2459 18.6979 9.99229 18.6276C9.39855 18.4631 8.83429 18.2273 8.30921 17.9299C8.08012 17.8001 7.79974 17.7999 7.5705 17.9295L5.76326 18.951L4.44814 17.6359L5.46964 15.8286C5.5992 15.5994 5.59905 15.319 5.4693 15.0899C5.17185 14.5648 4.93605 14.0006 4.77154 13.4069C4.70126 13.1532 4.50315 12.955 4.24954 12.8845L2.25 12.3291V10.4692L4.24954 9.91379C4.50315 9.84337 4.70126 9.64511 4.77154 9.39146C4.93609 8.79772 5.17189 8.23346 5.4693 7.70838C5.59909 7.47929 5.59924 7.19891 5.46968 6.96967L4.44817 5.16243L5.7633 3.84731L7.57057 4.86881C7.79981 4.99837 8.08016 4.99822 8.30929 4.86847C8.83432 4.57102 9.39859 4.33522 9.99229 4.17071C10.2459 4.10043 10.4442 3.90232 10.5146 3.64871Z"
        fill="#EEEEEE" />
</svg>
    