<svg width="20" height="20" viewBox="0 0 20 20" fill="none" xmlns="http://www.w3.org/2000/svg">
<path d="M14.6831 8.0166H10.3081C9.96644 8.0166 9.68311 7.73327 9.68311 7.3916C9.68311 7.04993 9.96644 6.7666 10.3081 6.7666H14.6831C15.0248 6.7666 15.3081 7.04993 15.3081 7.3916C15.3081 7.73327 15.0331 8.0166 14.6831 8.0166Z" fill="white"/>
<path d="M5.93346 8.65026C5.77513 8.65026 5.6168 8.59193 5.4918 8.46693L4.8668 7.84193C4.62513 7.60026 4.62513 7.20026 4.8668 6.95859C5.10846 6.71693 5.50846 6.71693 5.75013 6.95859L5.93346 7.14193L7.3668 5.70859C7.60846 5.46693 8.00846 5.46693 8.25013 5.70859C8.4918 5.95026 8.4918 6.35026 8.25013 6.59193L6.37513 8.46693C6.25846 8.58359 6.10013 8.65026 5.93346 8.65026Z" fill="white"/>
<path d="M14.6831 13.8496H10.3081C9.96644 13.8496 9.68311 13.5663 9.68311 13.2246C9.68311 12.8829 9.96644 12.5996 10.3081 12.5996H14.6831C15.0248 12.5996 15.3081 12.8829 15.3081 13.2246C15.3081 13.5663 15.0331 13.8496 14.6831 13.8496Z" fill="white"/>
<path d="M5.93346 14.4833C5.77513 14.4833 5.6168 14.4249 5.4918 14.2999L4.8668 13.6749C4.62513 13.4333 4.62513 13.0333 4.8668 12.7916C5.10846 12.5499 5.50846 12.5499 5.75013 12.7916L5.93346 12.9749L7.3668 11.5416C7.60846 11.2999 8.00846 11.2999 8.25013 11.5416C8.4918 11.7833 8.4918 12.1833 8.25013 12.4249L6.37513 14.2999C6.25846 14.4166 6.10013 14.4833 5.93346 14.4833Z" fill="white"/>
<path d="M12.4998 18.9587H7.49984C2.97484 18.9587 1.0415 17.0253 1.0415 12.5003V7.50033C1.0415 2.97533 2.97484 1.04199 7.49984 1.04199H12.4998C17.0248 1.04199 18.9582 2.97533 18.9582 7.50033V12.5003C18.9582 17.0253 17.0248 18.9587 12.4998 18.9587ZM7.49984 2.29199C3.65817 2.29199 2.2915 3.65866 2.2915 7.50033V12.5003C2.2915 16.342 3.65817 17.7087 7.49984 17.7087H12.4998C16.3415 17.7087 17.7082 16.342 17.7082 12.5003V7.50033C17.7082 3.65866 16.3415 2.29199 12.4998 2.29199H7.49984Z" fill="white"/>
</svg>
